HIERARCHY
ROOT Hips
{
	OFFSET 0.000000 0.000000 0.000000
	CHANNELS 6 Xposition Yposition Zposition Xrotation Yrotation Zrotation
	JOINT LeftUpLeg_virtual
	{
		OFFSET 0.000000 0.000000 0.000000
		CHANNELS 3 Xrotation Yrotation Zrotation
		JOINT LeftUpLeg
		{
			OFFSET 13.026900 -6.336304 -1.092800
			CHANNELS 3 Xrotation Yrotation Zrotation
			JOINT LeftLeg
			{
				OFFSET 0.524474 -46.096886 9.782700
				CHANNELS 3 Xrotation Yrotation Zrotation
				JOINT LeftFoot
				{
					OFFSET -0.524474 -53.427422 -12.948200
					CHANNELS 3 Xrotation Yrotation Zrotation
					JOINT LeftToeBase
					{
						OFFSET 0.192200 -14.009700 16.364100
						CHANNELS 3 Xrotation Yrotation Zrotation
						JOINT LeftToe_End
						{
							OFFSET -1.784700 -0.561700 9.474800
							CHANNELS 3 Xrotation Yrotation Zrotation
							End Site
							{
								OFFSET 0 0 0
							}
						}
					}
				}
			}
		}
	}
	JOINT RightUpLeg_virtual
	{
		OFFSET 0.000000 0.000000 0.000000
		CHANNELS 3 Xrotation Yrotation Zrotation
		JOINT RightUpLeg
		{
			OFFSET -12.883000 -6.336304 -1.092800
			CHANNELS 3 Xrotation Yrotation Zrotation
			JOINT RightLeg
			{
				OFFSET -0.524587 -46.096825 9.782800
				CHANNELS 3 Xrotation Yrotation Zrotation
				JOINT RightFoot
				{
					OFFSET 0.524587 -53.427383 -12.948300
					CHANNELS 3 Xrotation Yrotation Zrotation
					JOINT RightToeBase
					{
						OFFSET -0.192200 -14.009700 16.364100
						CHANNELS 3 Xrotation Yrotation Zrotation
						JOINT RightToe_End
						{
							OFFSET 1.784700 -0.561700 9.474800
							CHANNELS 3 Xrotation Yrotation Zrotation
							End Site
							{
								OFFSET 0 0 0
							}
						}
					}
				}
			}
		}
	}
	JOINT Spine_virtual
	{
		OFFSET 0.000000 0.000000 0.000000
		CHANNELS 3 Xrotation Yrotation Zrotation
		JOINT Spine
		{
			OFFSET 0.072000 7.257294 -0.789700
			CHANNELS 3 Xrotation Yrotation Zrotation
			JOINT Spine1
			{
				OFFSET 0.000000 12.508769 -0.658067
				CHANNELS 3 Xrotation Yrotation Zrotation
				JOINT Spine1_split
				{
					OFFSET 0.000000 12.508769 -0.658067
					CHANNELS 3 Xrotation Yrotation Zrotation
					JOINT Spine2
					{
						OFFSET 0.000000 12.508769 -0.658067
						CHANNELS 3 Xrotation Yrotation Zrotation
						JOINT Neck_virtual
						{
							OFFSET 0.000000 0.000000 0.000000
							CHANNELS 3 Xrotation Yrotation Zrotation
							JOINT Neck
							{
								OFFSET 0.000000 14.033295 7.520400
								CHANNELS 3 Xrotation Yrotation Zrotation
								JOINT Head
								{
									OFFSET 0.000000 8.198502 5.703100
									CHANNELS 3 Xrotation Yrotation Zrotation
									JOINT HeadTop_End
									{
										OFFSET 0.000000 17.760803 13.332701
										CHANNELS 3 Xrotation Yrotation Zrotation
										End Site
										{
											OFFSET 0 0 0
										}
									}
								}
							}
						}
						JOINT LeftShoulder_virtual
						{
							OFFSET 0.000000 0.000000 0.000000
							CHANNELS 3 Xrotation Yrotation Zrotation
							JOINT LeftShoulder
							{
								OFFSET 6.292450 5.785301 -0.669000
								CHANNELS 3 Xrotation Yrotation Zrotation
								JOINT LeftShoulder_split
								{
									OFFSET 6.292450 5.785301 -0.669000
									CHANNELS 3 Xrotation Yrotation Zrotation
									JOINT LeftArm
									{
										OFFSET 13.907140 -6.093903 1.965100
										CHANNELS 3 Xrotation Yrotation Zrotation
										JOINT LeftForeArm
										{
											OFFSET 34.140198 0.000000 0.000000
											CHANNELS 3 Xrotation Yrotation Zrotation
											JOINT LeftHand
											{
												OFFSET 40.960209 0.000000 0.000000
												CHANNELS 3 Xrotation Yrotation Zrotation
												End Site
												{
													OFFSET 0 0 0
												}
											}
										}
									}
								}
							}
						}
						JOINT RightShoulder_virtual
						{
							OFFSET 0.000000 0.000000 0.000000
							CHANNELS 3 Xrotation Yrotation Zrotation
							JOINT RightShoulder
							{
								OFFSET -6.292450 5.785301 -0.669000
								CHANNELS 3 Xrotation Yrotation Zrotation
								JOINT RightShoulder_split
								{
									OFFSET -6.292450 5.785301 -0.669000
									CHANNELS 3 Xrotation Yrotation Zrotation
									JOINT RightArm
									{
										OFFSET -13.907140 -6.093903 1.965100
										CHANNELS 3 Xrotation Yrotation Zrotation
										JOINT RightForeArm
										{
											OFFSET -34.140198 0.000000 0.000000
											CHANNELS 3 Xrotation Yrotation Zrotation
											JOINT RightHand
											{
												OFFSET -40.960209 0.000000 0.000000
												CHANNELS 3 Xrotation Yrotation Zrotation
												End Site
												{
													OFFSET 0 0 0
												}
											}
										}
									}
								}
							}
						}
					}
				}
			}
		}
	}
}
MOTION
Frames: 8
Frame Time: 0.03333333
12.092102 76.567833 62.341400 0.000000 0.000000 0.000000 -10.040046 -29.983643 -6.061742 -57.796453 -12.860575 23.594103 65.790575 -7.648193 6.870210 9.602214 0.813313 -30.737245 -6.567098 -3.796689 3.317815 0.000000 0.000000 0.000000 -10.832146 -28.454788 -6.362297 -34.544136 -11.754658 -36.153646 75.266076 24.381620 -16.396318 2.592920 -25.757559 34.900911 -10.760736 9.833632 -10.738462 0.000000 0.000000 0.000000 -7.415836 -26.654656 -6.614366 16.734626 6.796124 -8.513410 2.364085 -1.034506 1.278818 0.287143 -1.369907 0.196550 0.000000 0.000000 0.000000 9.670024 1.088429 2.564759 10.816148 22.849028 8.454589 -5.371182 11.905680 -32.730202 0.000000 0.000000 0.000000 5.359665 -1.129128 1.449742 1.288057 -6.228485 -3.076998 6.966846 -6.257436 2.807626 -64.027313 15.453725 -35.641915 174.712715 -66.263886 173.243582 0.000000 0.000000 0.000000 4.974843 -2.486500 1.001463 0.638258 7.180385 -8.459570 -11.550309 -0.349202 -4.848729 -40.313791 20.433781 86.256389 -142.733182 70.363939 141.950756 0.000000 0.000000 0.000000 
11.212733 78.279121 58.546745 0.000000 0.000000 0.000000 -9.368719 -30.100172 -4.938962 -56.816007 -11.528899 22.581131 59.882611 -6.545133 8.041306 12.486323 0.760769 -32.502562 -6.598976 -4.279427 3.551003 0.000000 0.000000 0.000000 -11.687371 -28.965210 -5.538626 -29.480121 -13.642134 -33.762530 74.132209 24.087844 -17.339900 -7.534937 -27.218669 37.463711 -5.937904 10.256064 -13.973829 0.000000 0.000000 0.000000 -8.563240 -28.043259 -6.075884 14.527387 7.579138 -7.542864 2.460404 -1.115392 0.711839 0.107789 -1.091408 0.179756 0.000000 0.000000 0.000000 9.393365 0.924447 2.010753 11.482988 21.831033 7.996557 -6.006149 8.241373 -33.196116 0.000000 0.000000 0.000000 5.563918 -1.287149 0.872804 0.940282 -3.263862 -3.090837 7.799161 -7.493738 4.431971 -63.079618 17.055665 -37.887913 172.606749 -67.537238 170.407469 0.000000 0.000000 0.000000 5.122556 -2.679876 0.554289 0.404548 7.782951 -8.265497 -11.833462 0.091757 -5.715041 -40.872296 20.967931 87.008803 -138.676637 70.864797 137.919811 0.000000 0.000000 0.000000 
10.373963 80.544540 54.703026 0.000000 0.000000 0.000000 -7.799011 -29.261077 -3.244848 -57.355018 -9.179884 22.396663 54.176955 -6.014784 8.681203 15.680668 -0.092386 -34.042452 -4.178720 -4.520009 3.544665 0.000000 0.000000 0.000000 -10.662580 -28.383672 -3.913998 -25.268590 -14.982059 -31.182426 71.843775 23.196234 -17.286758 -16.312104 -29.623726 36.894930 1.336531 9.899927 -15.953968 0.000000 0.000000 0.000000 -8.884484 -28.320360 -5.133527 12.653539 7.907626 -6.837948 2.436054 -1.236692 0.158375 -0.009236 -0.640908 0.119171 0.000000 0.000000 0.000000 8.832351 0.779155 1.363956 12.149099 20.578516 7.820610 -6.496359 4.170753 -33.581240 0.000000 0.000000 0.000000 5.640482 -1.446696 0.399892 0.661540 -0.744210 -2.671097 8.771287 -8.576527 5.343073 -62.898440 17.384254 -40.247986 172.047534 -68.884268 169.396355 0.000000 0.000000 0.000000 5.057566 -2.794334 0.168025 0.020283 8.096096 -8.619549 -10.862409 1.485841 -5.399336 -41.248773 20.578704 87.704417 -137.759779 70.603338 136.478108 0.000000 0.000000 0.000000 
9.558568 82.944000 51.047626 0.000000 0.000000 0.000000 -5.821447 -28.456021 -1.482159 -57.965090 -5.525933 22.881957 49.703054 -5.952170 8.632154 17.608842 -1.251510 -34.203518 -2.208322 -4.814404 4.095962 0.000000 0.000000 0.000000 -7.854958 -27.352678 -1.939745 -21.963660 -16.254366 -28.302878 68.460093 21.660275 -16.128329 -22.870178 -31.803355 33.511961 4.558606 9.691476 -16.619812 0.000000 0.000000 0.000000 -8.367239 -27.771471 -3.911342 11.360940 7.764504 -6.573890 2.318508 -1.382167 -0.275976 0.002221 -0.211048 0.086355 0.000000 0.000000 0.000000 8.098628 0.703168 0.798039 12.596202 19.212344 7.938219 -7.394546 0.417943 -34.119035 0.000000 0.000000 0.000000 5.530579 -1.577927 0.110909 0.422106 1.008854 -1.916229 9.660155 -8.890856 5.292759 -63.753915 16.974337 -42.220200 172.544362 -70.396608 169.731949 0.000000 0.000000 0.000000 4.717596 -2.789299 -0.046236 -0.496876 8.160078 -9.447329 -8.728001 2.734352 -3.938578 -42.075775 19.427479 88.202891 -140.093190 69.865773 137.860716 0.000000 0.000000 0.000000 
8.775230 85.319344 47.067810 0.000000 0.000000 0.000000 -3.747078 -28.456767 0.121314 -57.318415 -0.824266 23.566250 46.722647 -6.059264 7.749380 15.419183 -1.653717 -31.776881 -2.966917 -5.275266 5.432138 0.000000 0.000000 0.000000 -4.947264 -26.941913 -0.374633 -21.056491 -17.600142 -25.777023 64.861648 19.795492 -14.248815 -24.945447 -32.779273 30.710856 3.452484 9.781773 -16.336564 0.000000 0.000000 0.000000 -7.063661 -26.716263 -2.629253 10.747382 7.244105 -6.745343 2.072220 -1.519392 -0.495038 0.067383 0.081686 0.062862 0.000000 0.000000 0.000000 7.287136 0.701120 0.501801 12.574207 17.959416 8.214309 -8.781100 -2.135251 -35.015235 0.000000 0.000000 0.000000 5.186821 -1.637101 0.081502 0.196845 1.914715 -0.927006 10.119638 -8.669337 4.018207 -65.600122 16.298448 -43.709188 172.998323 -72.087039 170.236482 0.000000 0.000000 0.000000 4.199047 -2.718362 -0.024128 -1.109528 8.099885 -10.383959 -6.342993 3.347258 -2.270067 -43.409687 17.857521 88.553259 -144.108044 69.154067 140.696720 0.000000 0.000000 0.000000 
8.253379 87.617195 42.614731 0.000000 0.000000 0.000000 -1.829702 -29.324007 1.380652 -55.983755 4.201472 24.280117 46.652736 -6.536100 6.375420 9.483123 -2.036418 -27.685936 -5.191301 -5.708176 6.655533 0.000000 0.000000 0.000000 -2.531490 -27.411675 0.577473 -23.299490 -18.915572 -24.206762 62.067684 18.089693 -12.177930 -22.438334 -32.062165 30.317639 1.160274 9.757660 -15.531037 0.000000 0.000000 0.000000 -4.835391 -25.683658 -1.524274 10.625916 6.489787 -7.126376 1.679201 -1.605300 -0.448410 0.167978 0.209201 0.069541 0.000000 0.000000 0.000000 6.460349 0.764110 0.546479 12.132271 17.093479 8.447485 -10.627667 -3.247757 -36.236797 0.000000 0.000000 0.000000 4.647036 -1.604283 0.300498 -0.008960 2.140496 0.084721 9.759875 -8.003793 2.064198 -68.007961 15.766380 -44.850847 171.998753 -73.923042 169.395727 0.000000 0.000000 0.000000 3.573760 -2.589882 0.238736 -1.713359 8.021628 -11.192075 -4.212774 3.123646 -1.144071 -45.013727 16.518642 88.900274 -148.124701 68.940945 143.482194 0.000000 0.000000 0.000000 
7.854595 89.853096 37.701118 0.000000 0.000000 0.000000 0.261129 -30.346274 2.108922 -54.436464 8.389163 24.734000 50.019268 -7.314753 4.833580 2.987132 -3.230709 -23.378713 -5.698867 -5.776008 6.607791 0.000000 0.000000 0.000000 -0.529298 -28.582530 1.068099 -27.478032 -20.126327 -23.624943 60.212052 17.101730 -10.309413 -18.744074 -29.351966 30.824832 0.067137 9.416082 -14.758447 0.000000 0.000000 0.000000 -1.669648 -25.038888 -0.683295 10.663714 5.650235 -7.420828 1.119235 -1.620437 -0.176537 0.250223 0.176289 0.083082 0.000000 0.000000 0.000000 5.653209 0.861875 0.902329 11.576266 16.787114 8.326911 -12.427916 -3.019528 -37.601896 0.000000 0.000000 0.000000 3.962111 -1.504385 0.692058 -0.186967 2.108063 0.923821 8.819518 -7.430636 0.259824 -70.380769 15.569847 -45.768691 168.568563 -75.612653 166.114217 0.000000 0.000000 0.000000 2.856346 -2.456953 0.675661 -2.130263 7.976160 -11.687200 -2.295179 1.948052 -0.637373 -46.781547 15.662218 89.383148 -151.588085 69.228557 145.836464 0.000000 0.000000 0.000000 
7.477141 92.143837 32.327427 0.000000 0.000000 0.000000 2.535088 -31.307009 2.310093 -52.435881 10.400977 24.427712 55.450221 -8.902979 3.881985 -1.260144 -5.253906 -20.963341 -5.324422 -5.412110 5.385985 0.000000 0.000000 0.000000 1.510317 -29.812133 1.343190 -31.627778 -21.006875 -23.435106 58.477628 17.032448 -8.755186 -16.645396 -25.125416 30.333171 0.791554 8.841035 -14.292662 0.000000 0.000000 0.000000 1.696854 -25.172268 -0.251611 10.562023 4.877152 -7.394447 0.404232 -1.592984 0.197406 0.284288 0.086398 0.096060 0.000000 0.000000 0.000000 4.858165 0.939288 1.424809 11.088248 17.119261 7.772269 -13.346182 -1.502968 -38.808349 0.000000 0.000000 0.000000 3.169852 -1.375224 1.147716 -0.346579 2.225630 1.570879 7.592944 -7.471714 -1.051459 -72.465582 15.424193 -46.629613 162.400780 -76.894454 159.971773 0.000000 0.000000 0.000000 2.121256 -2.385651 1.126033 -2.289675 7.989202 -11.879549 -1.128972 0.331161 -0.519133 -48.528894 15.538925 90.068687 -154.542592 69.648901 147.946501 0.000000 0.000000 0.000000 
